<svg height="512pt" viewBox="0 0 512 512" width="512pt" xmlns="http://www.w3.org/2000/svg" xmlns:xlink="http://www.w3.org/1999/xlink"><linearGradient id="a" gradientTransform="matrix(1 0 0 -1 0 -12310)" gradientUnits="userSpaceOnUse" x1="0" x2="512" y1="-12566" y2="-12566"><stop offset="0" stop-color="#00f1ff"/><stop offset=".231" stop-color="#00d8ff"/><stop offset=".5138" stop-color="#00c0ff"/><stop offset=".7773" stop-color="#00b2ff"/><stop offset="1" stop-color="#00adff"/></linearGradient><path d="m512 256c0 141.386719-114.613281 256-256 256s-256-114.613281-256-256 114.613281-256 256-256 256 114.613281 256 256zm0 0" fill="url(#a)"/><g fill="#fff"><path d="m267.769531 195.257812c0-8.285156-6.714843-15-15-15h-18.738281c-29.652344 0-53.773438 24.121094-53.773438 53.769532v19.386718c0 8.285157 6.71875 15 15 15 8.285157 0 15-6.714843 15-15v-19.382812c0-13.109375 10.664063-23.773438 23.773438-23.773438h18.738281c8.285157 0 15-6.714843 15-15zm0 0"/><path d="m369.730469 180.257812h-37.988281v-37.988281c0-29.648437-24.121094-53.769531-53.769532-53.769531h-135.703125c-29.648437 0-53.769531 24.121094-53.769531 53.769531v135.699219c0 29.652344 24.121094 53.773438 53.769531 53.773438h37.988281v37.984374c0 29.652344 24.121094 53.773438 53.769532 53.773438h135.699218c29.652344 0 53.773438-24.121094 53.773438-53.773438v-135.695312c0-29.652344-24.121094-53.773438-53.769531-53.773438zm23.769531 189.472657c0 13.105469-10.664062 23.769531-23.769531 23.769531h-135.699219c-13.109375 0-23.773438-10.664062-23.773438-23.769531v-52.988281c0-8.285157-6.714843-15-15-15h-52.984374c-13.109376 0-23.773438-10.664063-23.773438-23.769532v-135.703125c0-13.105469 10.664062-23.769531 23.773438-23.769531h135.695312c13.109375 0 23.773438 10.664062 23.773438 23.769531v52.988281c0 8.285157 6.714843 15 15 15h52.984374c13.109376 0 23.773438 10.664063 23.773438 23.769532zm0 0"/><path d="m316.742188 242.9375c-8.285157 0-15 6.714844-15 15v20.03125c0 13.109375-10.664063 23.773438-23.769532 23.773438h-18.742187c-8.28125 0-15 6.714843-15 15 0 8.28125 6.71875 15 15 15h18.742187c29.648438 0 53.769532-24.125 53.769532-53.773438v-20.03125c0-8.285156-6.714844-15-15-15zm0 0"/></g></svg>